<?xml version="1.0" encoding="UTF-8"?>
<svg fill="currentColor" version="1.1" viewBox="0 0 173.8 275.72" xml:space="preserve" xmlns="http://www.w3.org/2000/svg"><g fill="#6acb5d"><circle cx="37.13" cy="26.43" r="21.6"/><circle cx="127.16" cy="46.64" r="46.65"/><circle class="middle" cx="34.62" cy="117.87" r="34.62"/><circle class="middle" cx="119.78" cy="130.68" r="21.6"/><path d="m102.637 163.447c-3.01454 0-5.70018 1.91834-6.6594 4.79584l-10.1672 30.4467-32.2006-0.10962c-6.87859-0.0274-9.70127 8.82434-4.08327 12.7706l25.4316 17.9227-10.5234 30.0631c-2.2198 6.3305 4.82326 11.8663 10.4686 8.22144l28.0899-18.1968 27.3226 18.142c5.61799 3.72706 12.7432-1.80871 10.5234-8.13922l-10.5508-30.0905 25.5687-18.0872c5.53577-3.94629 2.76788-12.6884-4.02851-12.7158l-32.6939-0.10962-9.83832-30.0631c-0.93177-2.8775-3.61743-4.82324-6.65936-4.85064z" stroke-width="7.01563"/></g></svg>
